<?xml version="1.0" encoding="UTF-8"?>
<svg id="Layer_2" data-name="Layer 2" xmlns="http://www.w3.org/2000/svg" viewBox="0 0 15.63 15.51">
  <defs>
    <style>
      .cls-1 {
        fill: #000;
      }

      .cls-1, .cls-2 {
        stroke-width: 0px;
      }

      .cls-2 {
        fill: #fff;
      }
    </style>
  </defs>
  <g id="Layer_1-2" data-name="Layer 1">
    <g>
      <path class="cls-2" d="M0,.12C.16.08.32,0,.48,0,5.53,0,10.58,0,15.63,0v15.51c-5.05,0-10.1,0-15.15,0-.16,0-.32-.07-.48-.11h15.52c-.02-.28-.03-.47-.05-.71h-.75c-4.45,0-8.9,0-13.35.01-.53,0-.67-.14-.66-.67.02-4.41.01-8.82.01-13.23,0-.21,0-.43,0-.68H0ZM14.04,13.45V2.32h-1.89v11.13h1.89ZM5.29,4.92v8.53h1.83V4.92h-1.83ZM8.64,7.31v6.14h1.82v-6.14h-1.82ZM3.79,10.91h-1.98c.04.87.08,1.7.12,2.54h1.87v-2.54Z"/>
      <path class="cls-1" d="M0,.12h.71c0,.25,0,.46,0,.68,0,4.41,0,8.82-.01,13.23,0,.53.14.67.66.67,4.45-.02,8.9-.01,13.35-.01h.75c.02.24.03.43.05.71H0V.12Z"/>
      <path class="cls-1" d="M6.97,13.45h-1.89v-5.24h1.89v5.24Z"/>
      <path class="cls-1" d="M11.57,7.73h1.83v5.72h-1.83v-5.72Z"/>
      <path class="cls-1" d="M8.34,4.23h1.82v9.22h-1.82V4.23Z"/>
      <path class="cls-1" d="M3.79,5.6v7.85h-1.87c-.04-2.59-.08-5.15-.12-7.85h1.98Z"/>
    </g>
  </g>
</svg>