<?xml version="1.0" encoding="UTF-8"?>
<svg id="Layer_2" xmlns="http://www.w3.org/2000/svg" version="1.1" viewBox="0 0 15.6 15.5">
  <!-- Generator: Adobe Illustrator 29.3.1, SVG Export Plug-In . SVG Version: 2.1.0 Build 151)  -->
  <g id="Layer_1-2">
    <g>
      <path d="M0,.1h.7v.7c0,4.4,0,8.8,0,13.2,0,.5.1.7.7.7,4.4,0,8.9,0,13.4,0h.8c0,.2,0,.4,0,.7H0V.1Z"/>
      <path d="M7.1,13.4h-2.5v-5.2h2.5v5.2Z"/>
      <path d="M7,4.2h2.4v9.2h-2.4V4.2Z"/>
      <path d="M4.6,6.5v6.9H2c0-2.3,0-4.5,0-6.9h2.7Z"/>
    </g>
  </g>
  <path d="M11.8,13.4h-2.5c0-2.9,0-5.5,0-8.5h2.5"/>
  <path d="M9.5,6.6h-2.5V1.3h2.5v5.2Z"/>
  <path d="M7.1,8.8h-2.5V3.6h2.5v5.2Z"/>
  <path d="M14.4,7.9v5.6h-2.7c0-1.9,0-3.6,0-5.6h2.7Z"/>
</svg>