<?xml version="1.0" encoding="utf-8"?>
<!-- Generator: Adobe Illustrator 28.3.0, SVG Export Plug-In . SVG Version: 6.00 Build 0)  -->
<svg version="1.1" id="Layer_2_00000076586089299170923750000016274626734421439883_"
	 xmlns="http://www.w3.org/2000/svg" xmlns:xlink="http://www.w3.org/1999/xlink" x="0px" y="0px" viewBox="0 0 15 15"
	 style="enable-background:new 0 0 15 15;" xml:space="preserve">
<g transform="translate(0.000000,241.000000) scale(0.100000,-0.100000)">
	<path d="M62.7,2401.9c-6.2-1-11-2.3-11.9-3.1c-0.3-0.3-1.1-0.6-1.7-0.6c-1.2,0-12.3-5.6-13.6-6.8c-0.2-0.2-2.3-1.8-4.7-3.7
		c-5.5-4.1-9.6-8.3-12.3-12.6c-0.6-0.9-1.6-2.2-2-2.7c-0.8-0.8-6.4-11.8-8.1-15.9c-1-2.6-2.1-8.1-2.8-14.7c-1-9.6,0.5-23.7,3.1-30.1
		c0.5-1.1,1.3-3.1,1.8-4.4c2-5.1,3.6-6.4,5.6-4.5c0.5,0.5,1.6,1.2,2.6,1.6c0.9,0.5,3.3,1.8,5.1,2.9c1.9,1.1,3.9,2.2,4.4,2.5
		c0.5,0.3,2.9,1.6,5.3,3.1c2.3,1.4,4.4,2.6,4.6,2.6s1.7,0.9,3.3,2c1.6,1.2,3.1,2,3.3,2s2.4,1.2,4.8,2.7c2.4,1.5,4.5,2.7,4.7,2.7
		c0.1,0,2.6,1.4,5.3,3.1c2.8,1.7,5.4,3.1,5.8,3.1c0.4,0,0.7,0.3,0.7,0.6c0,0.3,0.7,0.7,1.6,1c0.8,0.2,2.3,1.1,3.4,2l1.8,1.6v33
		c0,29.4-0.1,33-1.1,33.3C70.5,2403.1,69,2403,62.7,2401.9z"/>
	<path d="M81.4,2403.1c-0.3-0.2-0.5-15.5-0.5-33.9v-33.5l5.6-3.3c9.6-5.8,10.2-6.2,11.8-6.9c0.8-0.4,3.9-2.2,7-4.1
		c3.1-1.8,5.7-3.4,5.9-3.4c0.3,0,7.4-4.2,13.8-8.1c0.5-0.3,2.4-1.4,4.1-2.2c1.7-0.9,3.5-2,3.9-2.4c0.5-0.5,1.3-0.9,1.8-0.9
		c0.5,0,1-0.3,1.2-0.6c0.1-0.3,1-0.9,2.1-1.1c1.4-0.4,1.8-0.3,1.8,0.6c0,0.6,0.3,1.1,0.7,1.1c0.4,0,0.7,0.3,0.7,0.7
		c0,0.4,0.4,1.7,0.9,2.8c0.9,2.2,2.2,6.1,3.9,12.3c1.5,5.4,1.2,25.4-0.3,30.5c-0.7,2.2-1.6,5.4-2,7c-0.4,1.6-0.9,2.8-1.2,2.8
		c-0.3,0-0.5,0.3-0.5,0.7c0,0.8-2.7,6.7-3.4,7.4c-0.5,0.5-2,2.8-2.5,4.1c-0.3,0.5-0.8,1.4-1.2,1.8c-0.4,0.4-1.2,1.5-1.8,2.4
		c-2.4,3.7-13.8,14.2-15.5,14.2c-0.4,0-0.8,0.3-0.9,0.6c-0.3,0.9-11.9,6.9-13.4,6.9c-0.7,0-1.4,0.3-1.4,0.5c0,0.6-7.5,2.4-14.3,3.5
		C82.4,2403.7,82,2403.7,81.4,2403.1z"/>
	<path d="M73.8,2328.9c-1.1-0.7-2.1-1.4-2.2-1.6c-0.1-0.3-0.5-0.5-0.9-0.5c-0.6,0-9.8-5.3-23.7-13.7c-3.6-2.2-6.7-3.9-6.9-3.9
		s-2.3-1.2-4.6-2.7c-2.4-1.5-4.7-2.7-5.1-2.7c-0.5,0-0.9-0.3-0.9-0.7c0-0.3-0.4-0.7-0.9-0.7s-1.4-0.4-1.9-0.8
		c-0.5-0.5-2.4-1.6-4.2-2.6c-3.3-1.7-4.7-3.4-3.3-3.9c0.5-0.1,0.8-0.5,0.8-0.9c0-2,11.1-13.6,16.4-17.2c1.6-1.1,3.1-2.2,3.3-2.4
		c0.7-0.7,3.1-2.1,4.3-2.4c0.6-0.3,1.2-0.7,1.2-1c0-0.3,0.3-0.6,0.7-0.6c0.4,0,1.7-0.4,2.8-0.9c2.8-1.2,7.2-2.7,12.3-4.2
		c3.2-0.9,6.6-1.2,15.6-1.2c11.3,0,15.6,0.6,23.1,3.3c3.1,1.2,11.5,5.3,11.7,5.8c0.1,0.3,0.5,0.6,0.9,0.6c2.4,0,16,12.5,20.2,18.5
		c2.3,3.3,2.4,5,0.3,5.7c-0.7,0.3-1.4,0.6-1.6,0.8s-1.8,1.2-3.7,2.1c-1.8,0.9-3.5,1.8-3.7,2c-0.5,0.5-2.9,2-4.1,2.5
		c-0.5,0.3-2.8,1.6-5.1,2.9c-2.2,1.4-4.5,2.6-5.1,2.9c-0.5,0.3-1.9,1-3.1,1.7c-6.9,4.2-20.1,11.7-20.7,11.7c-0.3,0-0.7,0.2-0.7,0.5
		c0,0.5-1.8,1.6-4.9,2.8c-1.1,0.5-1.9,1.1-1.9,1.4C78.2,2330.5,76.1,2330.1,73.8,2328.9z"/>
</g>
</svg>
